<svg width="317" height="34" viewBox="0 0 317 34" fill="none" xmlns="http://www.w3.org/2000/svg">
<path d="M8.96428 33.2828C7.27869 33.2828 5.62374 32.8843 3.99945 32.0875C2.37515 31.2907 1.042 30.0188 0 28.2719L2.39047 25.9274C3.24859 27.3066 4.24462 28.3179 5.37857 28.9615C6.54316 29.6051 7.70775 29.9269 8.87234 29.9269C11.0483 29.9269 12.6266 29.3599 13.6073 28.226C14.6187 27.0614 15.1243 25.2379 15.1243 22.7555V5.74633H2.48242V2.52839H18.9399V23.0773C18.9399 24.487 18.7714 25.8202 18.4342 27.0767C18.0971 28.3026 17.5301 29.3752 16.7333 30.2947C15.9671 31.2141 14.9405 31.9496 13.6533 32.5013C12.3968 33.0223 10.8338 33.2828 8.96428 33.2828Z" fill="white"/>
<path d="M37.632 33.2828C36.1609 33.2828 34.7512 33.0223 33.4027 32.5013C32.0849 31.9803 30.9203 31.2294 29.9089 30.2487C28.8976 29.2373 28.0854 28.0115 27.4725 26.571C26.8902 25.1 26.599 23.445 26.599 21.6062C26.599 19.7367 26.8902 18.0818 27.4725 16.6414C28.0854 15.1703 28.8976 13.9291 29.9089 12.9178C30.9203 11.9064 32.0849 11.1402 33.4027 10.6192C34.7512 10.0982 36.1609 9.83772 37.632 9.83772C39.1031 9.83772 40.4975 10.0982 41.8153 10.6192C43.1638 11.1402 44.3437 11.9064 45.3551 12.9178C46.3664 13.9291 47.1633 15.1703 47.7456 16.6414C48.3585 18.0818 48.665 19.7367 48.665 21.6062C48.665 23.445 48.3585 25.1 47.7456 26.571C47.1633 28.0115 46.3664 29.2373 45.3551 30.2487C44.3437 31.2294 43.1638 31.9803 41.8153 32.5013C40.4975 33.0223 39.1031 33.2828 37.632 33.2828ZM37.632 30.1567C38.7047 30.1567 39.67 29.9575 40.5282 29.5591C41.4169 29.1301 42.1678 28.5478 42.7807 27.8122C43.4243 27.0461 43.9147 26.142 44.2518 25.1C44.5889 24.058 44.7575 22.8934 44.7575 21.6062C44.7575 20.319 44.5889 19.1544 44.2518 18.1124C43.9147 17.0398 43.4243 16.1204 42.7807 15.3542C42.1678 14.588 41.4169 14.0057 40.5282 13.6073C39.67 13.1783 38.7047 12.9637 37.632 12.9637C36.5594 12.9637 35.5787 13.1783 34.6899 13.6073C33.8318 14.0057 33.0809 14.588 32.4373 15.3542C31.8244 16.1204 31.3494 17.0398 31.0122 18.1124C30.6751 19.1544 30.5066 20.319 30.5066 21.6062C30.5066 22.8934 30.6751 24.058 31.0122 25.1C31.3494 26.142 31.8244 27.0461 32.4373 27.8122C33.0809 28.5478 33.8318 29.1301 34.6899 29.5591C35.5787 29.9575 36.5594 30.1567 37.632 30.1567Z" fill="white"/>
<path d="M66.5756 33.2828C64.89 33.2828 63.3116 33.0223 61.8406 32.5013C60.4002 31.9803 59.1283 31.2141 58.025 30.2027C56.9524 29.1914 56.0943 27.9655 55.4507 26.5251C54.8377 25.054 54.5313 23.3837 54.5313 21.5143C54.5313 19.7061 54.8377 18.0818 55.4507 16.6414C56.0943 15.201 56.937 13.9751 57.979 12.9637C59.0517 11.9524 60.2623 11.1862 61.6107 10.6652C62.9899 10.1135 64.4303 9.83772 65.932 9.83772C67.5256 9.83772 68.9507 10.0982 70.2073 10.6192C71.4944 11.1096 72.5671 11.8145 73.4252 12.7339C74.3139 13.6533 74.9882 14.7566 75.4479 16.0438C75.9076 17.3309 76.1375 18.756 76.1375 20.319C76.1375 20.7481 76.1221 21.1618 76.0915 21.5602C76.0608 21.9586 76.0149 22.3111 75.9536 22.6176H58.3468C58.592 25.1613 59.5114 27.0767 61.1051 28.3639C62.7293 29.6204 64.7061 30.2487 67.0353 30.2487C68.3838 30.2487 69.5943 30.0648 70.667 29.697C71.7702 29.2986 72.8276 28.7776 73.8389 28.134L75.218 30.6165C74.1148 31.352 72.8429 31.9803 71.4025 32.5013C69.9927 33.0223 68.3838 33.2828 66.5756 33.2828ZM66.0239 12.8258C65.1045 12.8258 64.2157 12.979 63.3576 13.2855C62.5301 13.592 61.7793 14.0364 61.1051 14.6187C60.4308 15.1703 59.8638 15.8752 59.4041 16.7333C58.9444 17.5914 58.6226 18.5721 58.4388 19.6754H72.6897C72.5364 17.3769 71.8622 15.6607 70.667 14.5267C69.5024 13.3928 67.9547 12.8258 66.0239 12.8258Z" fill="white"/>
<path d="M122.026 33.2828C120.126 33.2828 118.379 32.9303 116.786 32.2254C115.192 31.5205 113.813 30.5092 112.648 29.1914C111.484 27.8429 110.58 26.2033 109.936 24.2725C109.292 22.3111 108.971 20.1045 108.971 17.6527C108.971 15.2316 109.292 13.0557 109.936 11.1249C110.61 9.16348 111.53 7.52386 112.694 6.20604C113.889 4.85756 115.299 3.83089 116.923 3.126C118.578 2.39047 120.387 2.02271 122.348 2.02271C123.359 2.02271 124.279 2.12997 125.106 2.3445C125.934 2.55903 126.685 2.85018 127.359 3.21795C128.064 3.55506 128.677 3.93815 129.198 4.36721C129.749 4.79627 130.24 5.24065 130.669 5.70036L128.508 8.1368C127.773 7.33998 126.93 6.68107 125.98 6.16007C125.03 5.63907 123.819 5.37857 122.348 5.37857C120.938 5.37857 119.651 5.66971 118.486 6.25201C117.353 6.80366 116.372 7.6158 115.544 8.68845C114.717 9.73045 114.073 11.0023 113.614 12.504C113.185 14.0057 112.97 15.6913 112.97 17.5608C112.97 19.4609 113.169 21.1771 113.568 22.7095C113.997 24.2112 114.594 25.4984 115.36 26.571C116.157 27.6437 117.138 28.4712 118.303 29.0535C119.467 29.6357 120.785 29.9269 122.256 29.9269C123.329 29.9269 124.325 29.7737 125.244 29.4672C126.164 29.1301 126.914 28.6857 127.497 28.134V20.2731H121.475V17.1011H131.036V29.789C130.086 30.7697 128.83 31.5972 127.267 32.2714C125.735 32.9456 123.988 33.2828 122.026 33.2828Z" fill="white"/>
<path d="M145.407 33.2828C144.365 33.2828 143.385 33.1295 142.465 32.823C141.546 32.5472 140.734 32.1488 140.029 31.6278C139.355 31.0762 138.818 30.4172 138.42 29.6511C138.021 28.8542 137.822 27.9502 137.822 26.9388C137.822 25.6823 138.113 24.5943 138.696 23.6749C139.309 22.7248 140.259 21.9127 141.546 21.2384C142.864 20.5642 144.549 20.0126 146.603 19.5835C148.656 19.1544 151.123 18.8173 154.004 18.5721C153.973 17.806 153.851 17.0858 153.636 16.4115C153.422 15.7373 153.084 15.155 152.625 14.6646C152.165 14.1436 151.552 13.7299 150.786 13.4234C150.05 13.117 149.146 12.9637 148.074 12.9637C146.603 12.9637 145.193 13.2549 143.844 13.8372C142.496 14.3888 141.301 14.9864 140.259 15.63L138.788 13.0557C139.339 12.6879 139.983 12.3201 140.718 11.9524C141.484 11.554 142.281 11.2015 143.109 10.895C143.967 10.5886 144.871 10.3434 145.821 10.1595C146.771 9.94498 147.737 9.83772 148.717 9.83772C151.782 9.83772 154.05 10.6805 155.521 12.3661C157.023 14.021 157.773 16.243 157.773 19.0318V32.7311H154.693L154.372 29.697H154.234C152.977 30.6777 151.583 31.5205 150.05 32.2254C148.549 32.9303 147.001 33.2828 145.407 33.2828ZM146.419 30.2487C147.706 30.2487 148.962 29.9729 150.188 29.4212C151.445 28.8389 152.717 28.0115 154.004 26.9388V21.0546C151.613 21.2384 149.606 21.4989 147.982 21.8361C146.388 22.1732 145.101 22.5869 144.12 23.0773C143.17 23.537 142.496 24.0733 142.097 24.6862C141.699 25.2685 141.5 25.9274 141.5 26.663C141.5 27.3066 141.638 27.8582 141.914 28.3179C142.189 28.747 142.542 29.1147 142.971 29.4212C143.431 29.697 143.952 29.9116 144.534 30.0648C145.147 30.1874 145.775 30.2487 146.419 30.2487Z" fill="white"/>
<path d="M168.375 32.7311V10.3894H171.501L171.823 15.676H171.96C173.125 13.8678 174.55 12.4427 176.236 11.4007C177.952 10.3587 179.852 9.83772 181.936 9.83772C182.764 9.83772 183.53 9.91434 184.235 10.0676C184.939 10.1902 185.644 10.42 186.349 10.7571L185.476 14.021C184.679 13.7452 184.005 13.546 183.453 13.4234C182.932 13.3008 182.227 13.2395 181.338 13.2395C179.653 13.2395 178.029 13.7299 176.466 14.7106C174.933 15.6607 173.493 17.3003 172.144 19.6295V32.7311H168.375Z" fill="white"/>
<path d="M201.685 33.2828C200.214 33.2828 198.881 33.0223 197.686 32.5013C196.521 31.9803 195.51 31.2294 194.652 30.2487C193.794 29.2373 193.135 28.0115 192.675 26.571C192.216 25.1306 191.986 23.4757 191.986 21.6062C191.986 19.798 192.261 18.1737 192.813 16.7333C193.395 15.2623 194.146 14.021 195.066 13.0097C196.016 11.9983 197.104 11.2168 198.33 10.6652C199.556 10.1135 200.827 9.83772 202.145 9.83772C203.494 9.83772 204.689 10.0982 205.731 10.6192C206.804 11.1096 207.83 11.8145 208.811 12.7339H208.949L208.765 8.59651V0H212.535V32.7311H209.409L209.087 29.789H208.949C208.029 30.739 206.926 31.5665 205.639 32.2714C204.382 32.9456 203.065 33.2828 201.685 33.2828ZM202.467 30.1108C204.674 30.1108 206.773 28.9922 208.765 26.7549V15.63C207.754 14.68 206.758 14.0057 205.777 13.6073C204.827 13.2089 203.861 13.0097 202.881 13.0097C201.9 13.0097 200.981 13.2242 200.122 13.6533C199.295 14.0517 198.559 14.634 197.916 15.4002C197.303 16.1357 196.813 17.0245 196.445 18.0665C196.077 19.1085 195.893 20.2731 195.893 21.5602C195.893 24.2572 196.46 26.3565 197.594 27.8582C198.759 29.3599 200.383 30.1108 202.467 30.1108Z" fill="white"/>
<path d="M221.067 32.7311V10.3894H224.193L224.515 14.2049H224.699C225.863 12.9484 227.12 11.9064 228.468 11.0789C229.817 10.2515 231.365 9.83772 233.111 9.83772C235.778 9.83772 237.724 10.6039 238.95 12.1363C240.206 13.638 240.835 15.8752 240.835 18.848V32.7311H237.065V19.3536C237.065 17.239 236.667 15.676 235.87 14.6646C235.073 13.6226 233.755 13.1016 231.916 13.1016C231.242 13.1016 230.614 13.1936 230.031 13.3775C229.48 13.5307 228.928 13.7759 228.376 14.113C227.825 14.4501 227.258 14.8792 226.676 15.4002C226.093 15.8905 225.48 16.4728 224.837 17.1471V32.7311H221.067Z" fill="white"/>
<path d="M259.527 33.2828C257.841 33.2828 256.263 33.0223 254.792 32.5013C253.351 31.9803 252.079 31.2141 250.976 30.2027C249.903 29.1914 249.045 27.9655 248.402 26.5251C247.789 25.054 247.482 23.3837 247.482 21.5143C247.482 19.7061 247.789 18.0818 248.402 16.6414C249.045 15.201 249.888 13.9751 250.93 12.9637C252.003 11.9524 253.213 11.1862 254.562 10.6652C255.941 10.1135 257.381 9.83772 258.883 9.83772C260.477 9.83772 261.902 10.0982 263.158 10.6192C264.445 11.1096 265.518 11.8145 266.376 12.7339C267.265 13.6533 267.939 14.7566 268.399 16.0438C268.859 17.3309 269.089 18.756 269.089 20.319C269.089 20.7481 269.073 21.1618 269.043 21.5602C269.012 21.9586 268.966 22.3111 268.905 22.6176H251.298C251.543 25.1613 252.462 27.0767 254.056 28.3639C255.68 29.6204 257.657 30.2487 259.986 30.2487C261.335 30.2487 262.545 30.0648 263.618 29.697C264.721 29.2986 265.779 28.7776 266.79 28.134L268.169 30.6165C267.066 31.352 265.794 31.9803 264.354 32.5013C262.944 33.0223 261.335 33.2828 259.527 33.2828ZM258.975 12.8258C258.056 12.8258 257.167 12.979 256.309 13.2855C255.481 13.592 254.73 14.0364 254.056 14.6187C253.382 15.1703 252.815 15.8752 252.355 16.7333C251.895 17.5914 251.574 18.5721 251.39 19.6754H265.641C265.487 17.3769 264.813 15.6607 263.618 14.5267C262.453 13.3928 260.906 12.8258 258.975 12.8258Z" fill="white"/>
<path d="M278.632 32.7311V10.3894H281.758L282.08 15.676H282.218C283.383 13.8678 284.808 12.4427 286.493 11.4007C288.21 10.3587 290.11 9.83772 292.194 9.83772C293.021 9.83772 293.787 9.91434 294.492 10.0676C295.197 10.1902 295.902 10.42 296.607 10.7571L295.734 14.021C294.937 13.7452 294.262 13.546 293.711 13.4234C293.19 13.3008 292.485 13.2395 291.596 13.2395C289.911 13.2395 288.286 13.7299 286.723 14.7106C285.191 15.6607 283.75 17.3003 282.402 19.6295V32.7311H278.632Z" fill="white"/>
<path d="M313.276 33.2828C312.234 33.2828 311.346 32.9303 310.61 32.2254C309.905 31.5205 309.553 30.5858 309.553 29.4212C309.553 28.2566 309.905 27.3219 310.61 26.617C311.346 25.8815 312.234 25.5137 313.276 25.5137C314.318 25.5137 315.192 25.8815 315.897 26.617C316.632 27.3219 317 28.2566 317 29.4212C317 30.5858 316.632 31.5205 315.897 32.2254C315.192 32.9303 314.318 33.2828 313.276 33.2828Z" fill="white"/>
</svg>
