<svg width="279" height="30" viewBox="0 0 279 30" fill="none" xmlns="http://www.w3.org/2000/svg">
<path d="M7.8897 29.293C6.40616 29.293 4.94961 28.9424 3.52002 28.2411C2.09043 27.5398 0.917093 26.4204 0 24.8829L2.10392 22.8194C2.85917 24.0332 3.73581 24.9233 4.73382 25.4898C5.75881 26.0562 6.78379 26.3394 7.80878 26.3394C9.72388 26.3394 11.113 25.8404 11.9762 24.8424C12.8663 23.8174 13.3113 22.2125 13.3113 20.0277V5.0575H2.18484V2.2253H16.6695V20.3109C16.6695 21.5517 16.5212 22.725 16.2245 23.8309C15.9277 24.9099 15.4287 25.8539 14.7274 26.6631C14.0531 27.4723 13.1495 28.1197 12.0166 28.6052C10.9107 29.0638 9.53507 29.293 7.8897 29.293Z" fill="white"/>
<path d="M33.1209 29.293C31.8262 29.293 30.5854 29.0638 29.3986 28.6052C28.2387 28.1467 27.2138 27.4858 26.3236 26.6227C25.4335 25.7325 24.7187 24.6536 24.1793 23.3859C23.6668 22.0912 23.4105 20.6346 23.4105 19.0162C23.4105 17.3708 23.6668 15.9143 24.1793 14.6465C24.7187 13.3518 25.4335 12.2594 26.3236 11.3693C27.2138 10.4791 28.2387 9.8048 29.3986 9.34625C30.5854 8.88771 31.8262 8.65843 33.1209 8.65843C34.4156 8.65843 35.6429 8.88771 36.8028 9.34625C37.9896 9.8048 39.0281 10.4791 39.9182 11.3693C40.8083 12.2594 41.5096 13.3518 42.0221 14.6465C42.5616 15.9143 42.8313 17.3708 42.8313 19.0162C42.8313 20.6346 42.5616 22.0912 42.0221 23.3859C41.5096 24.6536 40.8083 25.7325 39.9182 26.6227C39.0281 27.4858 37.9896 28.1467 36.8028 28.6052C35.6429 29.0638 34.4156 29.293 33.1209 29.293ZM33.1209 26.5417C34.065 26.5417 34.9146 26.3664 35.6699 26.0158C36.4521 25.6381 37.113 25.1256 37.6524 24.4783C38.2189 23.804 38.6505 23.0082 38.9472 22.0911C39.2439 21.1741 39.3922 20.1491 39.3922 19.0162C39.3922 17.8833 39.2439 16.8583 38.9472 15.9412C38.6505 14.9972 38.2189 14.188 37.6524 13.5136C37.113 12.8393 36.4521 12.3268 35.6699 11.9762C34.9146 11.5985 34.065 11.4097 33.1209 11.4097C32.1769 11.4097 31.3137 11.5985 30.5315 11.9762C29.7762 12.3268 29.1154 12.8393 28.5489 13.5136C28.0095 14.188 27.5914 14.9972 27.2947 15.9412C26.998 16.8583 26.8496 17.8833 26.8496 19.0162C26.8496 20.1491 26.998 21.1741 27.2947 22.0911C27.5914 23.0082 28.0095 23.804 28.5489 24.4783C29.1154 25.1256 29.7762 25.6381 30.5315 26.0158C31.3137 26.3664 32.1769 26.5417 33.1209 26.5417Z" fill="white"/>
<path d="M58.5949 29.293C57.1114 29.293 55.7222 29.0638 54.4275 28.6052C53.1598 28.1467 52.0404 27.4723 51.0693 26.5822C50.1253 25.6921 49.37 24.6132 48.8036 23.3454C48.2641 22.0507 47.9944 20.5806 47.9944 18.9353C47.9944 17.3438 48.2641 15.9143 48.8036 14.6465C49.37 13.3788 50.1118 12.2998 51.0289 11.4097C51.973 10.5196 53.0384 9.84526 54.2252 9.38672C55.439 8.9012 56.7068 8.65843 58.0285 8.65843C59.4311 8.65843 60.6853 8.88771 61.7912 9.34625C62.9241 9.77783 63.8682 10.3982 64.6234 11.2074C65.4057 12.0166 65.9991 12.9877 66.4037 14.1205C66.8083 15.2534 67.0106 16.5077 67.0106 17.8833C67.0106 18.2609 66.9971 18.6251 66.9701 18.9757C66.9431 19.3264 66.9027 19.6366 66.8487 19.9063H51.3526C51.5684 22.1451 52.3776 23.8309 53.7802 24.9638C55.2097 26.0697 56.9495 26.6227 58.9995 26.6227C60.1863 26.6227 61.2518 26.4608 62.1958 26.1371C63.1669 25.7865 64.0975 25.3279 64.9876 24.7615L66.2014 26.9463C65.2304 27.5937 64.111 28.1467 62.8432 28.6052C61.6024 29.0638 60.1863 29.293 58.5949 29.293ZM58.1094 11.2883C57.3002 11.2883 56.518 11.4232 55.7627 11.6929C55.0344 11.9627 54.3736 12.3538 53.7802 12.8663C53.1868 13.3518 52.6877 13.9722 52.2831 14.7274C51.8785 15.4827 51.5953 16.3458 51.4335 17.3169H63.9761C63.8412 15.2939 63.2478 13.7834 62.1958 12.7854C61.1709 11.7873 59.8087 11.2883 58.1094 11.2883Z" fill="white"/>
<path d="M107.398 29.293C105.726 29.293 104.189 28.9828 102.786 28.3624C101.383 27.7421 100.17 26.8519 99.1447 25.6921C98.1197 24.5053 97.324 23.0622 96.7575 21.3629C96.1911 19.6366 95.9079 17.6945 95.9079 15.5366C95.9079 13.4057 96.1911 11.4906 96.7575 9.79131C97.3509 8.06502 98.1601 6.62195 99.1851 5.4621C100.237 4.27527 101.478 3.37166 102.907 2.75128C104.364 2.10392 105.955 1.78024 107.682 1.78024C108.572 1.78024 109.381 1.87464 110.109 2.06346C110.838 2.25227 111.498 2.50852 112.092 2.8322C112.712 3.1289 113.252 3.46607 113.71 3.8437C114.196 4.22132 114.627 4.61244 115.005 5.01704L113.103 7.16142C112.456 6.46011 111.714 5.88018 110.878 5.42164C110.042 4.96309 108.976 4.73382 107.682 4.73382C106.441 4.73382 105.308 4.99006 104.283 5.50256C103.285 5.98808 102.422 6.70287 101.694 7.64694C100.965 8.56403 100.399 9.68342 99.9943 11.0051C99.6167 12.3268 99.4279 13.8103 99.4279 15.4557C99.4279 17.1281 99.6032 18.6386 99.9539 19.9872C100.331 21.3089 100.857 22.4418 101.532 23.3859C102.233 24.3299 103.096 25.0582 104.121 25.5707C105.146 26.0832 106.306 26.3394 107.601 26.3394C108.545 26.3394 109.421 26.2046 110.231 25.9348C111.04 25.6381 111.701 25.247 112.213 24.7615V17.8429H106.913V15.0511H115.329V26.2181C114.492 27.0812 113.387 27.8095 112.011 28.4029C110.662 28.9963 109.125 29.293 107.398 29.293Z" fill="white"/>
<path d="M127.977 29.293C127.06 29.293 126.197 29.1582 125.387 28.8884C124.578 28.6457 123.863 28.295 123.243 27.8365C122.65 27.3509 122.178 26.771 121.827 26.0967C121.476 25.3954 121.301 24.5997 121.301 23.7096C121.301 22.6036 121.557 21.6461 122.07 20.8369C122.609 20.0007 123.445 19.2859 124.578 18.6925C125.738 18.0991 127.222 17.6136 129.029 17.236C130.836 16.8583 133.007 16.5616 135.543 16.3458C135.516 15.6715 135.408 15.0376 135.219 14.4442C135.03 13.8508 134.734 13.3383 134.329 12.9067C133.924 12.4482 133.385 12.084 132.711 11.8143C132.063 11.5446 131.268 11.4097 130.323 11.4097C129.029 11.4097 127.788 11.666 126.601 12.1785C125.414 12.664 124.362 13.19 123.445 13.7564L122.151 11.4906C122.636 11.167 123.203 10.8433 123.85 10.5196C124.524 10.1689 125.226 9.85875 125.954 9.58902C126.709 9.31928 127.505 9.10349 128.341 8.94165C129.177 8.75284 130.027 8.65843 130.89 8.65843C133.587 8.65843 135.583 9.4002 136.878 10.8837C138.2 12.3403 138.861 14.2959 138.861 16.7504V28.8075H136.15L135.867 26.1371H135.745C134.639 27.0003 133.412 27.7421 132.063 28.3624C130.742 28.9828 129.379 29.293 127.977 29.293ZM128.867 26.6227C130 26.6227 131.106 26.3799 132.185 25.8944C133.291 25.3819 134.41 24.6536 135.543 23.7096V18.5307C133.439 18.6925 131.672 18.9218 130.243 19.2185C128.84 19.5152 127.707 19.8793 126.844 20.3109C126.008 20.7155 125.414 21.1875 125.064 21.727C124.713 22.2395 124.538 22.8194 124.538 23.4668C124.538 24.0332 124.659 24.5187 124.902 24.9233C125.145 25.301 125.455 25.6247 125.832 25.8944C126.237 26.1371 126.696 26.326 127.208 26.4608C127.748 26.5687 128.301 26.6227 128.867 26.6227Z" fill="white"/>
<path d="M148.191 28.8075V9.14395H150.942L151.226 13.7969H151.347C152.372 12.2054 153.626 10.9512 155.11 10.0341C156.62 9.11698 158.293 8.65843 160.127 8.65843C160.855 8.65843 161.529 8.72587 162.15 8.86074C162.77 8.96863 163.39 9.17093 164.011 9.46764L163.242 12.3403C162.541 12.0975 161.947 11.9222 161.462 11.8143C161.003 11.7064 160.383 11.6525 159.601 11.6525C158.117 11.6525 156.688 12.084 155.312 12.9472C153.963 13.7834 152.696 15.2264 151.509 17.2764V28.8075H148.191Z" fill="white"/>
<path d="M177.509 29.293C176.214 29.293 175.041 29.0638 173.989 28.6052C172.964 28.1467 172.074 27.4858 171.318 26.6227C170.563 25.7325 169.983 24.6536 169.579 23.3859C169.174 22.1181 168.972 20.6616 168.972 19.0162C168.972 17.4248 169.214 15.9952 169.7 14.7274C170.212 13.4327 170.873 12.3403 171.682 11.4502C172.519 10.5601 173.476 9.87224 174.555 9.38672C175.634 8.9012 176.753 8.65843 177.913 8.65843C179.1 8.65843 180.152 8.88771 181.069 9.34625C182.013 9.77783 182.917 10.3982 183.78 11.2074H183.901L183.74 7.56601V0H187.057V28.8075H184.306L184.023 26.2181H183.901C183.092 27.0542 182.121 27.7825 180.988 28.4029C179.882 28.9963 178.722 29.293 177.509 29.293ZM178.197 26.5013C180.139 26.5013 181.986 25.5168 183.74 23.5477V13.7564C182.849 12.9202 181.973 12.3268 181.11 11.9762C180.273 11.6255 179.424 11.4502 178.561 11.4502C177.697 11.4502 176.888 11.639 176.133 12.0166C175.405 12.3673 174.757 12.8798 174.191 13.5541C173.651 14.2015 173.22 14.9837 172.896 15.9008C172.573 16.8179 172.411 17.8428 172.411 18.9757C172.411 21.3494 172.91 23.1971 173.908 24.5188C174.933 25.8404 176.362 26.5013 178.197 26.5013Z" fill="white"/>
<path d="M194.567 28.8075V9.14395H197.318L197.601 12.5021H197.763C198.788 11.3962 199.894 10.4791 201.081 9.75086C202.268 9.02258 203.63 8.65843 205.168 8.65843C207.514 8.65843 209.227 9.33277 210.306 10.6814C211.412 12.0031 211.965 13.9722 211.965 16.5886V28.8075H208.647V17.0337C208.647 15.1725 208.296 13.7969 207.595 12.9067C206.894 11.9896 205.734 11.5311 204.116 11.5311C203.522 11.5311 202.969 11.612 202.457 11.7739C201.971 11.9087 201.486 12.1245 201 12.4212C200.515 12.7179 200.016 13.0955 199.503 13.5541C198.991 13.9857 198.451 14.4982 197.885 15.0916V28.8075H194.567Z" fill="white"/>
<path d="M228.416 29.293C226.933 29.293 225.544 29.0638 224.249 28.6052C222.981 28.1467 221.862 27.4723 220.891 26.5822C219.947 25.6921 219.191 24.6132 218.625 23.3454C218.085 22.0507 217.816 20.5806 217.816 18.9353C217.816 17.3438 218.085 15.9143 218.625 14.6465C219.191 13.3788 219.933 12.2998 220.85 11.4097C221.794 10.5196 222.86 9.84526 224.046 9.38672C225.26 8.9012 226.528 8.65843 227.85 8.65843C229.252 8.65843 230.507 8.88771 231.613 9.34625C232.745 9.77783 233.689 10.3982 234.445 11.2074C235.227 12.0166 235.82 12.9877 236.225 14.1205C236.63 15.2534 236.832 16.5077 236.832 17.8833C236.832 18.2609 236.818 18.6251 236.791 18.9757C236.764 19.3264 236.724 19.6366 236.67 19.9063H221.174C221.39 22.1451 222.199 23.8309 223.601 24.9638C225.031 26.0697 226.771 26.6227 228.821 26.6227C230.008 26.6227 231.073 26.4608 232.017 26.1371C232.988 25.7865 233.919 25.3279 234.809 24.7615L236.023 26.9463C235.052 27.5937 233.932 28.1467 232.664 28.6052C231.424 29.0638 230.008 29.293 228.416 29.293ZM227.931 11.2883C227.121 11.2883 226.339 11.4232 225.584 11.6929C224.856 11.9627 224.195 12.3538 223.601 12.8663C223.008 13.3518 222.509 13.9722 222.104 14.7274C221.7 15.4827 221.417 16.3458 221.255 17.3169H233.797C233.662 15.2939 233.069 13.7834 232.017 12.7854C230.992 11.7873 229.63 11.2883 227.931 11.2883Z" fill="white"/>
<path d="M245.232 28.8075V9.14395H247.983L248.266 13.7969H248.388C249.413 12.2054 250.667 10.9512 252.15 10.0341C253.661 9.11698 255.333 8.65843 257.167 8.65843C257.896 8.65843 258.57 8.72587 259.19 8.86074C259.811 8.96863 260.431 9.17093 261.052 9.46764L260.283 12.3403C259.582 12.0975 258.988 11.9222 258.503 11.8143C258.044 11.7064 257.424 11.6525 256.641 11.6525C255.158 11.6525 253.728 12.084 252.353 12.9472C251.004 13.7834 249.736 15.2264 248.549 17.2764V28.8075H245.232Z" fill="white"/>
<path d="M275.723 29.293C274.806 29.293 274.023 28.9828 273.376 28.3624C272.756 27.7421 272.445 26.9194 272.445 25.8944C272.445 24.8694 272.756 24.0467 273.376 23.4263C274.023 22.779 274.806 22.4553 275.723 22.4553C276.64 22.4553 277.409 22.779 278.029 23.4263C278.676 24.0467 279 24.8694 279 25.8944C279 26.9194 278.676 27.7421 278.029 28.3624C277.409 28.9828 276.64 29.293 275.723 29.293Z" fill="white"/>
</svg>
